<?xml version="1.0" encoding="UTF-8" standalone="no"?>
<!DOCTYPE svg PUBLIC "-//W3C//DTD SVG 1.1//EN"
 "http://www.w3.org/Graphics/SVG/1.1/DTD/svg11.dtd">
<!-- Generated by graphviz version 2.49.0 (0)
 -->
<!-- Pages: 1 -->
<svg width="579pt" height="893pt"
 viewBox="-108.00 -108.00 687.00 1001.00" xmlns="http://www.w3.org/2000/svg" xmlns:xlink="http://www.w3.org/1999/xlink">
<g id="graph0" class="graph" transform="scale(1 1) rotate(0) translate(36 857)">
<g id="clust1" class="cluster">
<title>cluster_&lt;&lt;b&gt;Environments managed by&lt;br /&gt;conda&#45;store&lt;/b&gt;&gt;</title>
<path fill="transparent" stroke="#aeb6be" d="M322,-8C322,-8 495,-8 495,-8 501,-8 507,-14 507,-20 507,-20 507,-393 507,-393 507,-399 501,-405 495,-405 495,-405 322,-405 322,-405 316,-405 310,-399 310,-393 310,-393 310,-20 310,-20 310,-14 316,-8 322,-8"/>
<text text-anchor="start" x="318" y="-392.4" font-family="Sans-Serif" font-weight="bold" font-size="12.00" fill="#2d3436">Environments managed by</text>
<text text-anchor="start" x="367.5" y="-380.4" font-family="Sans-Serif" font-weight="bold" font-size="12.00" fill="#2d3436">conda&#45;store</text>
</g>
<g id="clust2" class="cluster">
<title>cluster_&lt;&lt;b&gt;Environments managed by&lt;br /&gt;traditional conda&lt;/b&gt;&gt;</title>
<path fill="transparent" stroke="#aeb6be" d="M322,-416C322,-416 495,-416 495,-416 501,-416 507,-422 507,-428 507,-428 507,-801 507,-801 507,-807 501,-813 495,-813 495,-813 322,-813 322,-813 316,-813 310,-807 310,-801 310,-801 310,-428 310,-428 310,-422 316,-416 322,-416"/>
<text text-anchor="start" x="318" y="-800.4" font-family="Sans-Serif" font-weight="bold" font-size="12.00" fill="#2d3436">Environments managed by</text>
<text text-anchor="start" x="351" y="-788.4" font-family="Sans-Serif" font-weight="bold" font-size="12.00" fill="#2d3436">traditional conda</text>
</g>
<!-- 359b7e226b9c4506b81030e1294ee363 -->
<g id="node1" class="node">
<title>359b7e226b9c4506b81030e1294ee363</title>
<image xlink:href="./Jupyter_logo.svg" width="101px" height="116.711px" preserveAspectRatio="xMinYMin meet" x="0" y="-462.356"/>
<text text-anchor="middle" x="50.5" y="-324.6" font-family="Sans-Serif" font-size="13.00" fill="#2d3436">JupyterLab</text>
<text text-anchor="middle" x="50.5" y="-310.6" font-family="Sans-Serif" font-size="13.00" fill="#2d3436">Web Interface</text>
</g>
<!-- eb7670d3d51d481cb856bc08e4b49c04 -->
<g id="node2" class="node">
<title>eb7670d3d51d481cb856bc08e4b49c04</title>
<image xlink:href="/home/pdmurray/.pyenv/versions/3.9.6/lib/python3.9/site-packages/resources/generic/compute/rack.png" width="101px" height="101px" preserveAspectRatio="xMinYMin meet" x="155" y="-577.5"/>
<text text-anchor="middle" x="205.5" y="-462.1" font-family="Sans-Serif" font-size="13.00" fill="#2d3436">Jupyter server</text>
</g>
<!-- 359b7e226b9c4506b81030e1294ee363&#45;&gt;eb7670d3d51d481cb856bc08e4b49c04 -->
<g id="edge1" class="edge">
<title>359b7e226b9c4506b81030e1294ee363:e&#45;&gt;eb7670d3d51d481cb856bc08e4b49c04:w</title>
<path fill="none" stroke="#7b8894" d="M101,-404C156.85,-404 103.21,-511.66 144.95,-525.53"/>
<polygon fill="#7b8894" stroke="#7b8894" points="144.6,-529.02 155,-527 145.61,-522.09 144.6,-529.02"/>
</g>
<!-- 1f6347bb93f6435aa6ee2f0d66b327c0 -->
<g id="node3" class="node">
<title>1f6347bb93f6435aa6ee2f0d66b327c0</title>
<image xlink:href="/home/pdmurray/.pyenv/versions/3.9.6/lib/python3.9/site-packages/resources/generic/compute/rack.png" width="101px" height="101px" preserveAspectRatio="xMinYMin meet" x="155" y="-364.5"/>
<text text-anchor="middle" x="205.5" y="-249.1" font-family="Sans-Serif" font-size="13.00" fill="#2d3436">conda&#45;store server</text>
</g>
<!-- 359b7e226b9c4506b81030e1294ee363&#45;&gt;1f6347bb93f6435aa6ee2f0d66b327c0 -->
<g id="edge2" class="edge">
<title>359b7e226b9c4506b81030e1294ee363:e&#45;&gt;1f6347bb93f6435aa6ee2f0d66b327c0:w</title>
<path fill="none" stroke="#7b8894" d="M101,-404C143.64,-404 114.47,-328.8 144.77,-315.88"/>
<polygon fill="#7b8894" stroke="#7b8894" points="145.8,-319.25 155,-314 144.53,-312.36 145.8,-319.25"/>
</g>
<!-- dd9e7ae7a6fc4575a0093a9fc0549711 -->
<g id="node11" class="node">
<title>dd9e7ae7a6fc4575a0093a9fc0549711</title>
<image xlink:href="./conda.svg" width="54px" height="54px" preserveAspectRatio="xMinYMin meet" x="381" y="-587"/>
<text text-anchor="middle" x="408" y="-516.6" font-family="Sans-Serif" font-size="13.00" fill="#2d3436">conda&#45;env&#45;3</text>
</g>
<!-- eb7670d3d51d481cb856bc08e4b49c04&#45;&gt;dd9e7ae7a6fc4575a0093a9fc0549711 -->
<g id="edge3" class="edge">
<title>eb7670d3d51d481cb856bc08e4b49c04:e&#45;&gt;dd9e7ae7a6fc4575a0093a9fc0549711:w</title>
<path fill="none" stroke="#7b8894" d="M256,-527C309.47,-527 321.54,-556 369.84,-559.63"/>
<polygon fill="#7b8894" stroke="#7b8894" points="369.88,-563.13 380,-560 370.13,-556.14 369.88,-563.13"/>
</g>
<!-- 70e5283dae3241ed9bcb6f47e0a70c9c -->
<g id="node5" class="node">
<title>70e5283dae3241ed9bcb6f47e0a70c9c</title>
<image xlink:href="./conda.svg" width="54px" height="54px" preserveAspectRatio="xMinYMin meet" x="381" y="-276"/>
<text text-anchor="middle" x="408" y="-205.6" font-family="Sans-Serif" font-size="13.00" fill="#2d3436">conda&#45;store&#45;env&#45;2</text>
</g>
<!-- 1f6347bb93f6435aa6ee2f0d66b327c0&#45;&gt;70e5283dae3241ed9bcb6f47e0a70c9c -->
<g id="edge4" class="edge">
<title>1f6347bb93f6435aa6ee2f0d66b327c0:e&#45;&gt;70e5283dae3241ed9bcb6f47e0a70c9c:w</title>
<path fill="none" stroke="#7b8894" d="M256,-314C314.7,-314 317.63,-256.15 370.01,-249.6"/>
<polygon fill="#7b8894" stroke="#7b8894" points="370.23,-253.1 380,-249 369.81,-246.11 370.23,-253.1"/>
</g>
<!-- d1351510fe7845c3b7125c06cfa7fd1f -->
<g id="node4" class="node">
<title>d1351510fe7845c3b7125c06cfa7fd1f</title>
<image xlink:href="./conda.svg" width="54px" height="54px" preserveAspectRatio="xMinYMin meet" x="381" y="-373"/>
<text text-anchor="middle" x="408" y="-302.6" font-family="Sans-Serif" font-size="13.00" fill="#2d3436">conda&#45;store&#45;env&#45;1</text>
</g>
<!-- e7a064b223cd4c8f896389d3b74e517b -->
<g id="node6" class="node">
<title>e7a064b223cd4c8f896389d3b74e517b</title>
<image xlink:href="./conda.svg" width="54px" height="54px" preserveAspectRatio="xMinYMin meet" x="381" y="-179"/>
<text text-anchor="middle" x="408" y="-108.6" font-family="Sans-Serif" font-size="13.00" fill="#2d3436">conda&#45;store&#45;env&#45;3</text>
</g>
<!-- 002fd48f5ec4443f8460812e84b12cb2 -->
<g id="node7" class="node">
<title>002fd48f5ec4443f8460812e84b12cb2</title>
<image xlink:href="./ellipsis.svg" width="4.83333px" height="29px" preserveAspectRatio="xMinYMin meet" x="405.583" y="-81.5"/>
</g>
<!-- 3634c13fafc9404d9503fb2689a0a2a3 -->
<g id="node8" class="node">
<title>3634c13fafc9404d9503fb2689a0a2a3</title>
</g>
<!-- 79dd86800e2b44438f1579911cfa336d -->
<g id="node9" class="node">
<title>79dd86800e2b44438f1579911cfa336d</title>
<image xlink:href="./conda.svg" width="54px" height="54px" preserveAspectRatio="xMinYMin meet" x="381" y="-781"/>
<text text-anchor="middle" x="408" y="-710.6" font-family="Sans-Serif" font-size="13.00" fill="#2d3436">conda&#45;env&#45;1</text>
</g>
<!-- 4b546a44a886424ba17afcdea88dd021 -->
<g id="node10" class="node">
<title>4b546a44a886424ba17afcdea88dd021</title>
<image xlink:href="./conda.svg" width="54px" height="54px" preserveAspectRatio="xMinYMin meet" x="381" y="-684"/>
<text text-anchor="middle" x="408" y="-613.6" font-family="Sans-Serif" font-size="13.00" fill="#2d3436">conda&#45;env&#45;2</text>
</g>
<!-- d4d246371ba74f589ad10575189a4a81 -->
<g id="node12" class="node">
<title>d4d246371ba74f589ad10575189a4a81</title>
<image xlink:href="./ellipsis.svg" width="4.83333px" height="29px" preserveAspectRatio="xMinYMin meet" x="405.583" y="-489.5"/>
</g>
<!-- be4a003e991b4c4d85bff1cee956ec24 -->
<g id="node13" class="node">
<title>be4a003e991b4c4d85bff1cee956ec24</title>
</g>
</g>
</svg>
